<svg width="255" height="231" viewBox="0 0 255 231" fill="none" xmlns="http://www.w3.org/2000/svg">
<path d="M127.044 230.71C197.209 230.71 254.089 228.789 254.089 226.419C254.089 224.049 197.209 222.128 127.044 222.128C56.8797 222.128 0 224.049 0 226.419C0 228.789 56.8797 230.71 127.044 230.71Z" fill="#47C1E2"/>
<path d="M226.745 1H27.3374V159.102H226.745V1Z" stroke="white" stroke-width="1.04" stroke-miterlimit="10"/>
<path d="M91.4364 8.92432H32.8396V151.177H91.4364V8.92432Z" fill="white"/>
<path d="M156.343 8.92432H97.7458V151.177H156.343V8.92432Z" fill="white"/>
<path d="M221.249 8.92432H162.652V151.177H221.249V8.92432Z" fill="white"/>
<path d="M134.68 120.328H108.485V156.997H134.68V120.328Z" fill="#C3DFED"/>
<path d="M98.19 122.104L70.8352 132.428V156.997H98.19V122.104Z" fill="#D4E6EE"/>
<path d="M52.3392 84.9446H31.7495V157.003H52.3392V84.9446Z" fill="#D4E6EE"/>
<path d="M37.8399 80.9131H33.8142V84.9387H37.8399V80.9131Z" fill="#D4E6EE"/>
<path d="M36.2595 75.3591L35.4001 76.8875V80.9131H36.2595V75.3591Z" fill="#D4E6EE"/>
<path d="M49.6227 88.6704H33.8142V89.9162H49.6227V88.6704Z" fill="#FDFEFF"/>
<path d="M49.6227 91.998H33.8142V93.2438H49.6227V91.998Z" fill="#FDFEFF"/>
<path d="M49.6227 95.3259H33.8142V96.5717H49.6227V95.3259Z" fill="#FDFEFF"/>
<path d="M49.6227 98.6538H33.8142V99.8996H49.6227V98.6538Z" fill="#FDFEFF"/>
<path d="M49.6227 101.981H33.8142V103.227H49.6227V101.981Z" fill="#FDFEFF"/>
<path d="M49.6227 105.309H33.8142V106.555H49.6227V105.309Z" fill="#FDFEFF"/>
<path d="M49.6227 108.637H33.8142V109.883H49.6227V108.637Z" fill="#FDFEFF"/>
<path d="M49.6227 111.965H33.8142V113.211H49.6227V111.965Z" fill="#FDFEFF"/>
<path d="M108.485 84.9446H87.8953V157.003H108.485V84.9446Z" fill="#D4E6EE"/>
<path d="M93.9915 80.9131H89.9658V84.9387H93.9915V80.9131Z" fill="#D4E6EE"/>
<path d="M92.4055 75.3591L91.5461 76.8875V80.9131H92.4055V75.3591Z" fill="#D4E6EE"/>
<path d="M91.546 89.2759H90.5713V134.412H91.546V89.2759Z" fill="#FDFEFF"/>
<path d="M94.3722 92.1077H93.3975V137.243H94.3722V92.1077Z" fill="#FDFEFF"/>
<path d="M97.1981 94.9338H96.2234V140.07H97.1981V94.9338Z" fill="#FDFEFF"/>
<path d="M100.03 97.7598H99.0552V142.895H100.03V97.7598Z" fill="#FDFEFF"/>
<path d="M70.8352 112.588H52.3391V156.997H70.8352V112.588Z" fill="#C3DFED"/>
<path d="M56.5263 116.123H54.4731V119.537H56.5263V116.123Z" fill="#FDFEFF"/>
<path d="M62.5937 116.123H60.5405V119.537H62.5937V116.123Z" fill="#FDFEFF"/>
<path d="M65.6274 116.123H63.5742V119.537H65.6274V116.123Z" fill="#FDFEFF"/>
<path d="M56.5263 122.017H54.4731V125.432H56.5263V122.017Z" fill="#FDFEFF"/>
<path d="M59.56 122.017H57.5068V125.432H59.56V122.017Z" fill="#FDFEFF"/>
<path d="M68.6667 122.017H66.6135V125.432H68.6667V122.017Z" fill="#FDFEFF"/>
<path d="M59.56 127.912H57.5068V131.326H59.56V127.912Z" fill="#FDFEFF"/>
<path d="M68.6667 127.912H66.6135V131.326H68.6667V127.912Z" fill="#FDFEFF"/>
<path d="M56.5263 133.806H54.4731V137.22H56.5263V133.806Z" fill="#FDFEFF"/>
<path d="M59.56 133.806H57.5068V137.22H59.56V133.806Z" fill="#FDFEFF"/>
<path d="M62.5937 133.806H60.5405V137.22H62.5937V133.806Z" fill="#FDFEFF"/>
<path d="M68.6667 133.806H66.6135V137.22H68.6667V133.806Z" fill="#FDFEFF"/>
<path d="M112.557 122.848H110.503V126.262H112.557V122.848Z" fill="#FDFEFF"/>
<path d="M115.884 122.848H113.831V126.262H115.884V122.848Z" fill="#FDFEFF"/>
<path d="M119.212 122.848H117.159V126.262H119.212V122.848Z" fill="#FDFEFF"/>
<path d="M125.868 122.848H123.815V126.262H125.868V122.848Z" fill="#FDFEFF"/>
<path d="M129.196 122.848H127.142V126.262H129.196V122.848Z" fill="#FDFEFF"/>
<path d="M132.523 122.848H130.47V126.262H132.523V122.848Z" fill="#FDFEFF"/>
<path d="M115.884 128.073H113.831V131.488H115.884V128.073Z" fill="#FDFEFF"/>
<path d="M122.54 128.073H120.487V131.488H122.54V128.073Z" fill="#FDFEFF"/>
<path d="M125.868 128.073H123.815V131.488H125.868V128.073Z" fill="#FDFEFF"/>
<path d="M129.196 128.073H127.143V131.488H129.196V128.073Z" fill="#FDFEFF"/>
<path d="M132.523 128.073H130.47V131.488H132.523V128.073Z" fill="#FDFEFF"/>
<path d="M112.557 133.293H110.503V136.707H112.557V133.293Z" fill="#FDFEFF"/>
<path d="M115.884 133.293H113.831V136.707H115.884V133.293Z" fill="#FDFEFF"/>
<path d="M125.868 133.293H123.815V136.707H125.868V133.293Z" fill="#FDFEFF"/>
<path d="M129.196 133.293H127.142V136.707H129.196V133.293Z" fill="#FDFEFF"/>
<path d="M112.557 138.518H110.503V141.932H112.557V138.518Z" fill="#FDFEFF"/>
<path d="M119.212 138.518H117.159V141.932H119.212V138.518Z" fill="#FDFEFF"/>
<path d="M122.54 138.518H120.487V141.932H122.54V138.518Z" fill="#FDFEFF"/>
<path d="M125.868 138.518H123.815V141.932H125.868V138.518Z" fill="#FDFEFF"/>
<path d="M129.196 138.518H127.142V141.932H129.196V138.518Z" fill="#FDFEFF"/>
<path d="M132.523 138.518H130.47V141.932H132.523V138.518Z" fill="#FDFEFF"/>
<path d="M237.611 120.328H211.416V156.997H237.611V120.328Z" fill="#C3DFED"/>
<path d="M201.121 122.104L173.766 132.428V156.997H201.121V122.104Z" fill="#D4E6EE"/>
<path d="M155.27 71.6333H134.68V156.997H155.27V71.6333Z" fill="#D4E6EE"/>
<path d="M140.771 67.6021H136.745V71.6277H140.771V67.6021Z" fill="#D4E6EE"/>
<path d="M139.191 62.0537L138.331 63.5763V67.602H139.191V62.0537Z" fill="#D4E6EE"/>
<path d="M152.554 75.3591H136.745V89.9161H152.554V75.3591Z" fill="#FDFEFF"/>
<path d="M152.554 91.998H136.745V93.2438H152.554V91.998Z" fill="#FDFEFF"/>
<path d="M152.554 95.3259H136.745V96.5717H152.554V95.3259Z" fill="#FDFEFF"/>
<path d="M152.554 98.6536H136.745V99.8993H152.554V98.6536Z" fill="#FDFEFF"/>
<path d="M152.554 101.981H136.745V103.227H152.554V101.981Z" fill="#FDFEFF"/>
<path d="M152.554 105.309H136.745V106.555H152.554V105.309Z" fill="#FDFEFF"/>
<path d="M152.554 108.637H136.745V109.883H152.554V108.637Z" fill="#FDFEFF"/>
<path d="M152.554 111.965H136.745V113.211H152.554V111.965Z" fill="#FDFEFF"/>
<path d="M211.416 84.9446H190.826V157.003H211.416V84.9446Z" fill="#D4E6EE"/>
<path d="M196.922 80.9131H192.897V84.9387H196.922V80.9131Z" fill="#D4E6EE"/>
<path d="M195.336 75.3591L194.477 76.8875V80.9131H195.336V75.3591Z" fill="#D4E6EE"/>
<path d="M194.477 89.2759H193.502V134.412H194.477V89.2759Z" fill="#FDFEFF"/>
<path d="M197.303 92.1077H196.328V137.243H197.303V92.1077Z" fill="#FDFEFF"/>
<path d="M200.135 94.9338H199.16V140.07H200.135V94.9338Z" fill="#FDFEFF"/>
<path d="M202.961 97.7598H201.986V142.895H202.961V97.7598Z" fill="#FDFEFF"/>
<path d="M173.766 112.588H155.27V156.997H173.766V112.588Z" fill="#C3DFED"/>
<path d="M159.457 116.123H157.404V119.537H159.457V116.123Z" fill="#FDFEFF"/>
<path d="M165.525 116.123H163.471V119.537H165.525V116.123Z" fill="#FDFEFF"/>
<path d="M168.558 116.123H166.505V119.537H168.558V116.123Z" fill="#FDFEFF"/>
<path d="M159.457 122.017H157.404V125.432H159.457V122.017Z" fill="#FDFEFF"/>
<path d="M162.491 122.017H160.438V125.432H162.491V122.017Z" fill="#FDFEFF"/>
<path d="M171.598 122.017H169.544V125.432H171.598V122.017Z" fill="#FDFEFF"/>
<path d="M162.491 127.912H160.438V131.326H162.491V127.912Z" fill="#FDFEFF"/>
<path d="M171.598 127.912H169.544V131.326H171.598V127.912Z" fill="#FDFEFF"/>
<path d="M159.457 133.806H157.404V137.22H159.457V133.806Z" fill="#FDFEFF"/>
<path d="M162.491 133.806H160.438V137.22H162.491V133.806Z" fill="#FDFEFF"/>
<path d="M165.525 133.806H163.471V137.22H165.525V133.806Z" fill="#FDFEFF"/>
<path d="M171.598 133.806H169.544V137.22H171.598V133.806Z" fill="#FDFEFF"/>
<path d="M215.488 122.848H213.434V126.262H215.488V122.848Z" fill="#FDFEFF"/>
<path d="M218.815 122.848H216.762V126.262H218.815V122.848Z" fill="#FDFEFF"/>
<path d="M222.143 122.848H220.09V126.262H222.143V122.848Z" fill="#FDFEFF"/>
<path d="M228.799 122.848H226.746V126.262H228.799V122.848Z" fill="#FDFEFF"/>
<path d="M232.126 122.848H230.073V126.262H232.126V122.848Z" fill="#FDFEFF"/>
<path d="M235.454 122.848H233.401V126.262H235.454V122.848Z" fill="#FDFEFF"/>
<path d="M218.815 128.073H216.762V131.488H218.815V128.073Z" fill="#FDFEFF"/>
<path d="M225.471 128.073H223.418V131.488H225.471V128.073Z" fill="#FDFEFF"/>
<path d="M228.799 128.073H226.746V131.488H228.799V128.073Z" fill="#FDFEFF"/>
<path d="M232.127 128.073H230.073V131.488H232.127V128.073Z" fill="#FDFEFF"/>
<path d="M235.454 128.073H233.401V131.488H235.454V128.073Z" fill="#FDFEFF"/>
<path d="M215.488 133.293H213.434V136.707H215.488V133.293Z" fill="#FDFEFF"/>
<path d="M218.815 133.293H216.762V136.707H218.815V133.293Z" fill="#FDFEFF"/>
<path d="M228.799 133.293H226.746V136.707H228.799V133.293Z" fill="#FDFEFF"/>
<path d="M232.126 133.293H230.073V136.707H232.126V133.293Z" fill="#FDFEFF"/>
<path d="M215.488 138.518H213.434V141.932H215.488V138.518Z" fill="#FDFEFF"/>
<path d="M222.143 138.518H220.09V141.932H222.143V138.518Z" fill="#FDFEFF"/>
<path d="M225.471 138.518H223.418V141.932H225.471V138.518Z" fill="#FDFEFF"/>
<path d="M228.799 138.518H226.746V141.932H228.799V138.518Z" fill="#FDFEFF"/>
<path d="M232.126 138.518H230.073V141.932H232.126V138.518Z" fill="#FDFEFF"/>
<path d="M235.454 138.518H233.401V141.932H235.454V138.518Z" fill="#FDFEFF"/>
<path d="M239.711 139.279H14.5801V154.275H239.711V139.279Z" fill="#00769B"/>
<path d="M242.202 134.746H11.8809V139.36H242.202V134.746Z" fill="#00A5BE"/>
<path d="M239.613 154.355H187.406V217.941H239.613V154.355Z" fill="#00769B"/>
<path d="M235.604 160.365H191.409V211.926H235.604V160.365Z" fill="#00375A"/>
<path d="M235.604 161.807H192.701V211.925H235.604V161.807Z" fill="#00547C"/>
<path d="M191.732 217.941H187.406V225.294H191.732V217.941Z" fill="#00698F"/>
<path d="M239.607 217.941H235.281V225.294H239.607V217.941Z" fill="#00698F"/>
<path d="M25.0826 210.772H19.1306L26.3975 154.355H34.3393L25.0826 210.772Z" fill="#949595"/>
<path d="M30.7922 175.948L34.3392 154.355H26.3975L24.5461 168.728L30.7922 175.948Z" fill="#6E7172"/>
<path d="M24.3385 210.772H19.8745L18.6345 225.248H21.3337L24.3385 210.772Z" fill="#444849"/>
<path d="M43.7168 210.772H49.6745L46.3468 154.355H38.405L43.7168 210.772Z" fill="#6E7172"/>
<path d="M40.4409 175.948L38.405 154.355H46.3468L47.1946 168.728L40.4409 175.948Z" fill="#6E7172"/>
<path d="M44.4609 210.772H48.9307L49.1556 225.248H46.4565L44.4609 210.772Z" fill="#444849"/>
<path d="M119.045 121.793H39.3337V128.518H119.045V121.793Z" fill="#949595"/>
<path d="M43.5959 128.518H39.3337V134.833H43.5959V128.518Z" fill="#949595"/>
<path d="M43.5959 131.834V128.518H39.3337V130.15C40.7525 130.698 42.1079 131.384 43.5959 131.84V131.834Z" fill="#6E7172"/>
<path d="M119.045 128.518H114.783V134.833H119.045V128.518Z" fill="#949595"/>
<path d="M117.672 133.247C118.122 133.541 118.589 133.806 119.045 134.095V128.518H114.783V131.442C115.769 131.978 116.709 132.618 117.672 133.253V133.247Z" fill="#6E7172"/>
<path d="M111.767 117.882H46.7334V121.793H111.767V117.882Z" fill="#004D78"/>
<path d="M111.294 81.8765H47.2122V117.882H111.294V81.8765Z" fill="#00739C"/>
<path d="M108.67 85.4983H49.8247V114.26H108.67V85.4983Z" fill="#7DD2F1"/>
<path d="M80.7323 85.4984C80.7323 86.5769 79.8557 87.4535 78.7772 87.4535C77.6987 87.4535 76.822 86.5769 76.822 85.4984C76.822 84.4199 77.6987 83.5432 78.7772 83.5432C79.8557 83.5432 80.7323 84.4199 80.7323 85.4984Z" fill="#00739C"/>
<path d="M67.4558 91.4216H54.335V110.546H67.4558V91.4216Z" fill="#CFECFC"/>
<path d="M67.4558 91.4216H54.335V94.2534H67.4558V91.4216Z" fill="white"/>
<path d="M78.408 91.4907H69.0706V101.128H78.408V91.4907Z" fill="#CFECFC"/>
<path d="M78.408 91.4907H69.0706V93.5093H78.408V91.4907Z" fill="white"/>
<path d="M107.355 85.4983H95.5488V97.6214H107.355V85.4983Z" fill="#00739C"/>
<path d="M106.599 84.7659H94.7932V96.889H106.599V84.7659Z" fill="#F9EC31"/>
<path d="M89.2566 101.999V110.719C89.2566 110.829 89.2912 110.927 89.3431 111.013L93.6341 106.555L89.2566 101.999Z" fill="white"/>
<path d="M99.2747 106.555L103.571 111.013C103.623 110.927 103.658 110.829 103.658 110.719V102.005L99.2747 106.555Z" fill="white"/>
<path d="M95.0933 106.555L96.4544 107.962L97.8155 106.555L98.5422 105.788L102.925 101.243H89.9834L94.3609 105.788L95.0933 106.555Z" fill="white"/>
<path d="M98.5422 107.311L96.4544 109.479L94.3608 107.311L90.5024 111.325H102.412L98.5422 107.311Z" fill="white"/>
<path d="M37.4767 76.5876L43.9247 83.6123L42.7712 85.1753L34.3623 79.2637L37.4767 76.5876Z" fill="#00739C"/>
<path d="M39.9567 70.751L45.9491 81.2765L44.611 82.0378L36.7847 72.5562L39.9567 70.751Z" fill="#00739C"/>
<path d="M47.4542 73.0811L45.0088 73.9404L47.6503 79.1368L49.3747 78.5313L47.4542 73.0811Z" fill="#00739C"/>
<path d="M135.984 51.6782H102.769C102.285 51.6782 101.893 52.0707 101.893 52.5549V66.4024C101.893 66.8866 102.285 67.2791 102.769 67.2791H135.984C136.468 67.2791 136.861 66.8866 136.861 66.4024V52.5549C136.861 52.0707 136.468 51.6782 135.984 51.6782Z" fill="#00739C"/>
<path d="M106.761 67.2791L103.704 78.0583L117.009 67.2791H106.761Z" fill="#00739C"/>
<path d="M132.656 55.1501H106.097V55.9807H132.656V55.1501Z" fill="white"/>
<path d="M132.656 59.0605H106.097V59.8911H132.656V59.0605Z" fill="white"/>
<path d="M132.656 62.9766H106.097V63.8071H132.656V62.9766Z" fill="white"/>
<path d="M122.517 96.3006L118.618 95.62L121.26 75.0361L127.01 76.0397L122.517 96.3006Z" fill="#0096C8"/>
<path d="M121.946 101.572C121.727 102.835 120.522 103.683 119.259 103.458C117.995 103.239 117.148 102.033 117.373 100.77C117.592 99.5072 118.797 98.6594 120.06 98.8843C121.323 99.1035 122.171 100.309 121.946 101.572Z" fill="#0096C8"/>
<path d="M44.8647 24.335L46.9467 29.1277L51.1512 26.019L50.5629 31.2097L55.7536 30.6214L52.6507 34.8259L57.4376 36.9079L52.6507 38.9957L55.7536 43.2001L50.5629 42.6119L51.1512 47.7968L46.9467 44.6939L44.8647 49.4866L42.7769 44.6939L38.5782 47.7968L39.1665 42.6119L33.9758 43.2001L37.0787 38.9957L32.2917 36.9079L37.0787 34.8259L33.9758 30.6214L39.1665 31.2097L38.5782 26.019L42.7769 29.1277L44.8647 24.335Z" fill="#FF5160"/>
<path d="M41.5945 38.4535H40.6659L40.4468 33.5801H41.8194L41.5945 38.4535Z" fill="white"/>
<path d="M41.6752 39.6934C41.6752 39.9933 41.4329 40.2413 41.1272 40.2413C40.8216 40.2413 40.5793 39.9991 40.5793 39.6934C40.5793 39.3877 40.8216 39.1455 41.1272 39.1455C41.4329 39.1455 41.6752 39.3877 41.6752 39.6934Z" fill="white"/>
<path d="M45.3259 38.4535H44.3974L44.1782 33.5801H45.5509L45.3259 38.4535Z" fill="white"/>
<path d="M45.4066 39.6934C45.4066 39.9933 45.1644 40.2413 44.8587 40.2413C44.553 40.2413 44.3108 39.9991 44.3108 39.6934C44.3108 39.3877 44.553 39.1455 44.8587 39.1455C45.1644 39.1455 45.4066 39.3877 45.4066 39.6934Z" fill="white"/>
<path d="M49.0576 38.4535H48.1291L47.9099 33.5801H49.2826L49.0576 38.4535Z" fill="white"/>
<path d="M49.1383 39.6934C49.1383 39.9933 48.8961 40.2413 48.5904 40.2413C48.2847 40.2413 48.0425 39.9991 48.0425 39.6934C48.0425 39.3877 48.2847 39.1455 48.5904 39.1455C48.8961 39.1455 49.1383 39.3877 49.1383 39.6934Z" fill="white"/>
<path d="M64.6181 69.0035C73.4381 69.0035 80.5881 64.2885 80.5881 58.4722C80.5881 52.6559 73.4381 47.9409 64.6181 47.9409C55.7982 47.9409 48.6482 52.6559 48.6482 58.4722C48.6482 64.2885 55.7982 69.0035 64.6181 69.0035Z" fill="#0096C8"/>
<path d="M73.9268 65.5315L82.9008 77.4873L64.6182 69.0035L73.9268 65.5315Z" fill="#0096C8"/>
<path d="M59.1449 58.4721C59.1449 59.8851 57.9972 61.0328 56.5842 61.0328C55.1712 61.0328 54.0234 59.8851 54.0234 58.4721C54.0234 57.0591 55.1712 55.9114 56.5842 55.9114C57.9972 55.9114 59.1449 57.0591 59.1449 58.4721Z" fill="white"/>
<path d="M67.1788 58.4721C67.1788 59.8851 66.0311 61.0328 64.6181 61.0328C63.2051 61.0328 62.0574 59.8851 62.0574 58.4721C62.0574 57.0591 63.2051 55.9114 64.6181 55.9114C66.0311 55.9114 67.1788 57.0591 67.1788 58.4721Z" fill="white"/>
<path d="M75.2128 58.4721C75.2128 59.8851 74.0651 61.0328 72.652 61.0328C71.239 61.0328 70.0913 59.8851 70.0913 58.4721C70.0913 57.0591 71.239 55.9114 72.652 55.9114C74.0651 55.9114 75.2128 57.0591 75.2128 58.4721Z" fill="white"/>
<path d="M124.617 34.895V45.6282C124.617 45.7608 124.57 45.8819 124.513 45.9915L119.23 40.5009L124.622 34.895H124.617Z" fill="#0096C8"/>
<path d="M112.28 40.4952L106.991 45.98C106.928 45.8705 106.887 45.7551 106.887 45.6167V34.8835L112.28 40.4895V40.4952Z" fill="#0096C8"/>
<path d="M117.43 40.4952L115.758 42.2369L114.079 40.4952L113.18 39.5551L107.787 33.9607H123.717L118.33 39.5551L117.43 40.4952Z" fill="#0096C8"/>
<path d="M113.18 41.4294L115.758 44.0998L118.33 41.4294L123.082 46.3721H108.422L113.18 41.4294Z" fill="#0096C8"/>
<path d="M124.403 36.4696C125.907 36.4696 127.125 35.2508 127.125 33.7474C127.125 32.2439 125.907 31.0251 124.403 31.0251C122.9 31.0251 121.681 32.2439 121.681 33.7474C121.681 35.2508 122.9 36.4696 124.403 36.4696Z" fill="#FF5160"/>
<path d="M73.2057 37.0174V36.3945C73.2057 33.1878 77.2659 33.0494 77.2659 30.7655C77.2659 29.7735 76.4585 29.1276 75.2589 29.1276C73.9439 29.1276 73.1134 29.8428 73.1134 30.8578V31.1116C73.1134 31.3653 72.975 31.4807 72.7212 31.4807L70.2528 31.3884C70.0221 31.3884 69.8606 31.2731 69.8606 31.1116V30.8578C69.8606 28.0664 72.0753 26.1516 75.3281 26.1516C78.5809 26.1516 80.5649 27.951 80.5649 30.6502C80.5649 34.4797 76.4354 34.5028 76.4354 36.6022V37.0174C76.4354 37.2712 76.297 37.4096 76.0433 37.4096H73.5979C73.3441 37.4096 73.2057 37.2712 73.2057 37.0174ZM72.9981 40.7316C72.9981 39.7166 73.8978 38.886 74.9821 38.886C76.0663 38.886 76.943 39.7166 76.943 40.7316C76.943 41.7467 76.0202 42.5772 74.959 42.5772C73.8978 42.5772 72.9981 41.7467 72.9981 40.7316Z" fill="#00739C"/>
<path d="M14.4184 119.33C13.2534 119.33 12.3018 120.276 12.3018 121.447V124.844C12.3018 128.056 14.9029 130.657 18.1153 130.657H22.1929V119.33H14.4126H14.4184ZM14.4184 121.141H20.3877V128.846H18.1211C15.9122 128.846 14.1185 127.053 14.1185 124.844V121.447C14.1185 121.279 14.2511 121.147 14.4184 121.147" fill="#00739C"/>
<path d="M17.6018 117.9V127.341C17.6018 130.519 19.3032 133.299 21.8351 134.833H32.5509C35.0886 133.299 36.7842 130.525 36.7842 127.341V117.9H17.6018Z" fill="#00739C"/>
<path d="M17.6018 125.144V127.341C17.6018 130.519 19.3032 133.299 21.8351 134.833H32.5509C33.2834 134.389 33.9409 133.841 34.5118 133.218C27.9312 133.529 21.3391 130.53 17.6076 125.144H17.6018Z" fill="#004D78"/>
<path d="M238.286 124.976H209.028V134.066H238.286V124.976Z" fill="white"/>
<path d="M209.028 134.06V124.976H238.523V124.111H207.367V134.925H238.523V134.06H209.028Z" fill="#0096C8"/>
<path d="M238.286 126.712H209.028V127.473H238.286V126.712Z" fill="#B8DCED"/>
<path d="M238.286 129.14H209.028V129.901H238.286V129.14Z" fill="#B8DCED"/>
<path d="M238.286 131.568H209.028V132.33H238.286V131.568Z" fill="#B8DCED"/>
<path d="M240.547 116.758H211.289V123.246H240.547V116.758Z" fill="white"/>
<path d="M211.289 123.246V116.758H240.783V115.893H209.628V124.111H240.783V123.246H211.289Z" fill="#00739C"/>
<path d="M240.547 118.321H211.289V119.082H240.547V118.321Z" fill="#B8DCED"/>
<path d="M240.547 120.749H211.289V121.51H240.547V120.749Z" fill="#B8DCED"/>
<path d="M237.202 105.996H207.944V115.085H237.202V105.996Z" fill="white"/>
<path d="M207.944 115.085V105.996H237.438V105.131H206.283V115.95H237.438V115.085H207.944Z" fill="#0096C8"/>
<path d="M237.202 107.732H207.944V108.493H237.202V107.732Z" fill="#B8DCED"/>
<path d="M237.202 110.541H207.944V111.302H237.202V110.541Z" fill="#B8DCED"/>
<path d="M237.202 112.588H207.944V113.349H237.202V112.588Z" fill="#B8DCED"/>
<path d="M190.471 140.795L186.481 139.416L169.241 189.286L173.231 190.665L190.471 140.795Z" fill="#00769B"/>
<path d="M168.887 179.795H126.156C124.22 179.795 122.65 181.365 122.65 183.302V183.59C122.65 185.527 124.22 187.097 126.156 187.097H168.887C170.824 187.097 172.394 185.527 172.394 183.59V183.302C172.394 181.365 170.824 179.795 168.887 179.795Z" fill="#F9EC31"/>
<path d="M173.241 187.097H129.669V190.655H173.241V187.097Z" fill="#00769B"/>
<path d="M156.487 190.656H142.789V193.009H156.487V190.656Z" fill="#004D78"/>
<path d="M152.231 190.656H147.04V216.067H152.231V190.656Z" fill="#00769B"/>
<path d="M152.231 202.363V190.656H147.04V199.105C148.799 200.137 150.512 201.25 152.231 202.363Z" fill="#004D78"/>
<path d="M170.617 216.067H128.659V218.881H170.617V216.067Z" fill="#00769B"/>
<path d="M132.766 216.067H128.296V221.327H132.766V216.067Z" fill="#00769B"/>
<path d="M151.873 216.067H147.403V221.327H151.873V216.067Z" fill="#00769B"/>
<path d="M170.975 216.067H166.505V221.327H170.975V216.067Z" fill="#00769B"/>
<path d="M170.617 223.42C170.617 224.452 169.775 225.294 168.743 225.294C167.71 225.294 166.868 224.452 166.868 223.42C166.868 222.388 167.71 222.122 168.743 222.122C169.775 222.122 170.617 222.388 170.617 223.42Z" fill="#00769B"/>
<path d="M151.51 223.42C151.51 224.452 150.668 225.294 149.635 225.294C148.603 225.294 147.761 224.452 147.761 223.42C147.761 222.388 148.603 222.122 149.635 222.122C150.668 222.122 151.51 222.388 151.51 223.42Z" fill="#00769B"/>
<path d="M132.408 223.42C132.408 224.452 131.566 225.294 130.534 225.294C129.501 225.294 128.659 224.452 128.659 223.42C128.659 222.388 129.501 222.122 130.534 222.122C131.566 222.122 132.408 222.388 132.408 223.42Z" fill="#00769B"/>
<path d="M178.668 167.913L182.707 169.31L196.16 130.396L192.121 128.999L178.668 167.913Z" fill="#00769B"/>
<path d="M194.587 116.025C192.389 115.264 189.99 116.429 189.229 118.632L172.001 168.468C171.24 170.666 172.405 173.065 174.608 173.826C176.806 174.588 179.205 173.422 179.966 171.219L197.193 121.383C197.955 119.186 196.79 116.787 194.587 116.025Z" fill="#F9EC31"/>
<path d="M175.091 124.896L181.011 127.988L187.148 116.234L181.228 113.143L175.091 124.896Z" fill="#F4C6BA"/>
<path d="M181.229 113.141L178.12 119.099C179.355 120.051 180.837 121.671 180.848 123.269C180.86 124.595 180.231 126.326 178.951 126.914L181.016 127.992L187.152 116.238L181.235 113.147L181.229 113.141Z" fill="#EF9C9C"/>
<path d="M199.16 106.555C196.017 114.941 190.434 116.071 184.557 113.868C178.686 111.665 174.868 106.641 178.011 98.2557C181.154 89.8699 188.461 84.858 194.333 87.0611C200.204 89.2643 202.297 98.1691 199.154 106.555H199.16Z" fill="#00182E"/>
<path d="M194.471 97.4598C192.7 103.441 183.749 107.155 177.774 105.384C171.794 103.614 168.385 97.3271 170.156 91.3521C171.926 85.3771 177.053 80.642 186.46 83.3931C192.447 85.1464 196.242 91.479 194.471 97.4598Z" fill="#00182E"/>
<path d="M180.393 89.8699C173.633 87.8628 168.575 93.5149 168.795 101.255C168.685 104.271 163.985 100.69 164.359 105.788C164.411 106.52 165.253 107.034 165.813 107.374C166.038 107.507 166.459 107.639 166.62 107.835C166.932 108.222 166.666 108.966 166.528 109.364C166.118 110.569 165.692 111.786 165.64 113.055C165.576 114.52 166.09 115.714 167.105 116.74C167.289 116.925 167.52 117.063 167.745 117.196C169.815 118.407 171.321 119.163 173.668 119.434C175.756 119.676 178.069 120.305 180.116 119.734C184.234 118.58 187.689 115.316 190.272 111.907C191.236 110.633 192.043 109.208 192.47 107.662C194.373 100.753 187.262 91.9058 180.393 89.8699Z" fill="#F4C6BA"/>
<path d="M173.801 119.451C175.854 119.699 178.121 120.293 180.122 119.734C184.24 118.58 187.694 115.316 190.278 111.907C191.241 110.633 192.049 109.208 192.476 107.662C192.995 105.771 192.839 103.741 192.205 101.739C189.494 109.969 182.204 117.006 173.807 119.451H173.801Z" fill="#EF9C9C"/>
<path d="M172.18 89.9622C170.121 94.7895 175.583 98.423 177.209 98.7633C178.83 99.0978 176.984 101.849 177.786 102.754C178.415 103.469 180.71 100.493 181.448 100.292C183.709 99.6745 185.162 103.037 185.595 104.756C186.045 106.543 185.958 108.741 185.139 110.419C184.424 111.89 183.161 114.37 184.107 116.014C184.938 117.455 186.881 117.473 188.115 116.66C189.546 115.719 190.78 114.324 192.135 113.263C193.877 111.901 195.405 110.275 196.317 108.239C199.241 101.716 196.668 92.2346 188.069 88.2493C179.47 84.264 172.18 89.9564 172.18 89.9564V89.9622Z" fill="#00182E"/>
<path d="M187.267 107.409C186.293 110.442 183.265 112.178 180.508 111.29C177.751 110.402 178.478 107.928 179.458 104.894C180.433 101.86 181.287 99.4264 184.043 100.315C186.8 101.203 188.248 104.381 187.273 107.409H187.267Z" fill="#F4C6BA"/>
<path d="M181.598 107.697C182.013 108.164 182.492 107.333 182.619 106.936C182.74 106.555 182.821 106.151 183.074 105.84C183.346 105.505 183.893 105.292 184.309 105.465C184.476 105.534 184.707 105.747 184.874 105.574C185.035 105.401 184.874 105.084 184.782 104.923C184.516 104.432 184.182 104.04 183.622 103.861C182.538 103.515 182.204 104.467 181.823 105.661C181.685 106.099 181.229 107.155 181.523 107.605C181.546 107.639 181.569 107.674 181.592 107.703L181.598 107.697Z" fill="#CF8D70"/>
<path d="M174.406 100.707C174.406 100.707 173.824 99.1093 171.926 99.4785" stroke="#6C341E" stroke-width="1.42" stroke-linecap="round" stroke-linejoin="round"/>
<path d="M172.099 103.412C171.857 104.087 171.402 104.536 171.084 104.421C170.767 104.306 170.704 103.665 170.946 102.991C171.188 102.316 171.644 101.866 171.961 101.981C172.278 102.097 172.342 102.737 172.099 103.412Z" fill="#6C341E"/>
<path d="M175.208 108.862C175.064 109.26 173.916 109.208 172.641 108.753C171.367 108.297 170.45 107.599 170.594 107.207C170.738 106.809 171.886 106.861 173.161 107.316C174.435 107.772 175.352 108.47 175.208 108.862Z" fill="#FF738F"/>
<path d="M169.487 111.198C168.979 111.048 168.477 110.881 167.981 110.713C167.883 111.152 167.791 111.59 167.687 112.005C167.56 112.501 167.457 112.997 167.335 113.493C168.224 114.168 169.423 114.387 170.536 113.949C171.459 113.586 172.111 112.847 172.422 111.982C171.425 111.867 170.456 111.492 169.492 111.204L169.487 111.198Z" fill="white"/>
<path d="M70.8641 219.435C70.8641 219.435 71.2621 219.365 70.7949 220.427C70.3335 221.488 67.3806 225.052 66.1925 225.289C65.0045 225.525 49.2652 215.074 49.8535 213.177C50.3899 211.464 67.4325 214.4 67.4325 214.4L70.8641 219.435Z" fill="#002545"/>
<path d="M68.465 212.018L65.9043 214.694C65.9043 214.694 66.6771 218.241 70.8643 219.44L73.425 216.764L68.465 212.018Z" fill="#F4C6BA"/>
<path d="M67.894 212.612L68.465 212.018L73.425 216.764L71.0142 219.285C69.9934 217.053 68.9725 214.821 67.894 212.612Z" fill="#EF9C9C"/>
<path d="M114.46 169.916C117.684 174.224 120.856 177.84 102.239 194.156C83.6217 210.472 74.5207 218.685 74.5207 218.685L67.7209 211.822C67.7209 211.822 97.6307 177.09 101.841 170.879C106.178 164.471 114.454 169.916 114.454 169.916H114.46Z" fill="#002545"/>
<path d="M165.576 166.49C164.728 173.047 162.791 182.339 145.984 182.275C133.008 182.223 109.292 182.962 105.878 175.972C103.871 171.859 95.4619 166.738 122.436 162.954C139.213 160.601 150.656 158.387 155.27 159.148C159.884 159.909 165.922 163.779 165.571 166.49H165.576Z" fill="#003E6A"/>
<path d="M163.062 162.655C162.185 169.945 154.267 176.26 148.124 179.005C143.505 181.07 138.314 181.872 133.244 182.235C137.876 182.31 142.351 182.264 145.985 182.281C162.791 182.344 164.729 173.053 165.576 166.496C165.732 165.319 164.677 163.923 163.062 162.66V162.655Z" fill="#002545"/>
<path d="M155.282 159.154C152.306 158.664 146.498 159.408 138.256 160.63C138.458 160.924 138.649 161.224 138.845 161.518C142.051 164.154 144.756 167.361 147.663 170.32C150.973 173.688 154.693 176.618 158.263 179.715C163.95 176.502 165.017 170.89 165.582 166.496C165.934 163.785 159.896 159.921 155.282 159.154Z" fill="#002545"/>
<path d="M61.965 210.149C61.965 210.149 62.3687 210.166 61.6881 211.106C61.0076 212.047 57.3683 214.901 56.1572 214.878C54.946 214.855 41.7848 201.302 42.7653 199.572C43.6534 198.009 59.6811 204.503 59.6811 204.503L61.9592 210.155L61.965 210.149Z" fill="#002545"/>
<path d="M61.192 202.386L58.1238 204.457C58.1238 204.457 58.1238 208.09 61.9649 210.149L65.0331 208.079L61.192 202.386Z" fill="#F4C6BA"/>
<path d="M60.8691 202.605L61.1921 202.386L65.0332 208.079L62.9685 209.469C62.2129 207.196 61.5209 204.901 60.8691 202.605Z" fill="#EF9C9C"/>
<path d="M115.083 171.023C117.321 175.914 119.651 180.13 97.9882 192.114C76.3258 204.099 65.6908 210.189 65.6908 210.189L60.5059 202.04C60.5059 202.04 97.1116 174.46 102.544 169.281C108.145 163.946 115.077 171.023 115.077 171.023H115.083Z" fill="#003E6A"/>
<path d="M182.584 124.543C188.479 127.987 183.005 141.027 178.282 150.306C174.175 158.381 170.19 162.378 167.07 170.862C166.689 171.905 166.315 172.961 166.13 174.057C165.957 175.095 165.945 176.202 165.432 177.119C164.561 178.671 163.01 178.209 161.66 177.713C160.109 177.148 158.05 176.491 156.741 175.493C155.149 174.282 153.955 172.615 152.369 171.381C148.245 168.382 144.583 164.713 140.286 162.032C139.848 161.761 139.41 161.484 139.069 161.092C138.735 160.705 138.51 160.18 138.602 159.679C138.694 159.154 139.092 158.75 139.467 158.375C141.33 156.524 143.02 154.609 145.108 152.994C153.684 146.344 160.172 137.082 165.876 127.964C169.262 122.554 175.681 120.512 182.584 124.543Z" fill="#FF5160"/>
<path d="M184.228 126.17C184.199 128.961 184.13 131.753 183.409 134.469C182.579 137.612 181.408 140.658 179.972 143.57C176.852 149.897 172.959 155.641 168.864 161.368C167.774 162.897 166.684 164.425 165.692 166.017C164.775 167.488 164.06 169.137 163.079 170.562C161.839 172.361 159.884 173.699 157.594 173.526C155.495 173.37 153.805 172.24 152.225 170.954C152.046 170.937 151.873 170.908 151.7 170.879C151.925 171.046 152.144 171.219 152.369 171.386C153.955 172.615 155.149 174.287 156.741 175.499C158.05 176.496 160.109 177.154 161.66 177.719C163.01 178.209 164.561 178.676 165.432 177.125C165.951 176.208 165.957 175.101 166.13 174.062C166.315 172.967 166.684 171.911 167.07 170.867C170.19 162.383 174.17 158.387 178.282 150.312C182.44 142.146 187.175 131.061 184.228 126.176V126.17Z" fill="#D61D44"/>
<path d="M154.947 150.26C156.493 151.979 159.14 152.123 160.859 150.578L169.631 142.694C171.35 141.148 171.494 138.501 169.948 136.782C168.402 135.063 165.755 134.919 164.037 136.465L155.264 144.349C153.546 145.894 153.401 148.542 154.947 150.26Z" fill="#F4C6BA"/>
<path d="M160.755 150.359C162.226 148.242 161.701 145.335 159.584 143.87L132.414 126.885C129.928 125.305 128.233 125.732 127.546 126.695C126.491 128.177 127.241 129.752 129.588 131.862L154.267 151.529C156.383 153 159.29 152.475 160.755 150.359Z" fill="#F4C6BA"/>
<path d="M169.942 136.782C168.397 135.063 165.749 134.919 164.031 136.465L158.684 141.275C159.826 143.928 161.228 146.437 162.733 148.893L169.631 142.694C171.35 141.148 171.494 138.501 169.948 136.782H169.942Z" fill="#EF9C9C"/>
<path d="M177.44 125.778C173.282 122.952 163.829 133.35 161.395 135.784C158.961 138.218 157.923 137.422 158.01 138.524C158.096 139.625 162.923 146.673 165.98 147.728C169.037 148.784 174.758 140.092 176.696 136.84C178.634 133.587 182.573 129.267 177.44 125.772V125.778Z" fill="#D61D44"/>
<path d="M147.478 123.667L129.594 122.819L128.4 109.912L145.823 105.794L147.478 123.667Z" fill="url(#paint0_linear_4_813)"/>
<path d="M129.94 129.41L129.52 129.436C129.048 129.465 128.639 129.103 128.61 128.631L127.473 110.153C127.444 109.681 127.806 109.271 128.278 109.242L128.698 109.216C129.17 109.187 129.58 109.549 129.609 110.021L130.745 128.494C130.774 128.966 130.412 129.375 129.94 129.404L129.94 129.41Z" fill="#00769B"/>
<path d="M132.466 125.432C132.46 124.872 132.454 124.313 132.541 123.759C132.616 123.304 132.754 122.86 132.766 122.398C132.783 121.568 132.091 120.708 131.18 121.083C131.053 121.135 130.949 121.227 130.828 121.297C130.534 121.458 130.182 121.47 129.847 121.452C129.657 121.441 129.461 121.418 129.294 121.325C129.092 121.21 128.959 121.008 128.809 120.829C128.279 120.195 126.831 119.382 126.087 120.166C125.626 120.651 125.666 121.931 125.568 122.542C125.395 123.609 125.447 125.466 125.268 126.533C124.916 128.662 126.883 130.346 129.005 130.623C131.774 130.98 132.495 127.975 132.46 125.438L132.466 125.432Z" fill="#F4C6BA"/>
<defs>
<linearGradient id="paint0_linear_4_813" x1="128.4" y1="114.733" x2="147.478" y2="114.733" gradientUnits="userSpaceOnUse">
<stop stop-color="#F9ED39"/>
<stop offset="0.98" stop-color="#F9EC31" stop-opacity="0"/>
</linearGradient>
</defs>
</svg>
